<?xml version="1.0" standalone="no"?>
<!DOCTYPE svg PUBLIC "-//W3C//DTD SVG 1.1//EN" "http://www.w3.org/Graphics/SVG/1.1/DTD/svg11.dtd" >
<svg xmlns="http://www.w3.org/2000/svg">
<metadata></metadata>
<defs>
<font id="demibas-afineemedium" horiz-adv-x="929" >
<font-face units-per-em="2048" ascent="1638" descent="-410" />
<missing-glyph horiz-adv-x="500" />
<glyph horiz-adv-x="2048" />
<glyph horiz-adv-x="2048" />
<glyph unicode="&#xd;" horiz-adv-x="1392" />
<glyph unicode=" " />
<glyph unicode="!" horiz-adv-x="464" d="M170 0v129h129v-129h-129zM170 283v755h125v-755h-125z" />
<glyph unicode="&#x22;" horiz-adv-x="464" d="M88 1038h129l-35 -374h-57zM258 1038h127l-33 -374h-59z" />
<glyph unicode="#" d="M170 295q0 -61 22.5 -115.5t62.5 -94.5t94 -62.5t116 -22.5q61 0 114.5 22.5t93.5 62.5t63.5 94t23.5 116v225h-125l-2 -287q0 -35 -14.5 -66.5t-37 -54t-53 -36t-63.5 -13.5q-72 0 -120 49.5t-48 120.5v412h463v96q0 61 -23.5 114.5t-63.5 93.5t-93.5 63.5t-114.5 23.5 t-115.5 -23.5t-94.5 -63.5t-62.5 -93t-22.5 -115v-446zM279 1360h176l170 -248h-101zM297 727v14q0 68 12.5 112t35 69.5t53 37t67.5 11.5t67.5 -11.5t53 -37t35 -69.5t12.5 -112v-14h-336z" />
<glyph unicode="$" horiz-adv-x="464" d="M88 1038h129l-35 -374h-57zM258 1038h127l-33 -374h-59z" />
<glyph unicode="&#x26;" d="M170 295v446q0 61 22.5 114.5t62.5 93.5t94 63.5t116 23.5q61 0 114.5 -23.5t93.5 -63.5t63.5 -93t23.5 -115v-96h-463v-412q0 -72 48 -121t120 -49q33 0 63.5 13.5t53 36t37 54.5t14.5 66l2 287h125v-225q0 -61 -23.5 -115.5t-63.5 -94.5t-93.5 -62.5t-114.5 -22.5 t-115.5 22.5t-94.5 62.5t-62.5 94t-22.5 116zM297 727h336v14q0 68 -12.5 112t-35 69.5t-53 37t-67.5 11.5t-67.5 -11.5t-53 -37t-35 -69.5t-12.5 -112v-14z" />
<glyph unicode="'" horiz-adv-x="464" d="M170 664l43 374h133l-113 -374h-63z" />
<glyph unicode="(" horiz-adv-x="464" d="M74 522q0 272 123 518h122q-59 -123 -90.5 -253t-31.5 -265q0 -137 31.5 -267t90.5 -253h-122q-59 123 -91 253t-32 267z" />
<glyph unicode=")" horiz-adv-x="464" d="M170 2q59 123 91 253t32 267q0 135 -32 265.5t-91 252.5h123q123 -246 123 -518q0 -137 -32 -267t-91 -253h-123z" />
<glyph unicode="*" horiz-adv-x="464" d="M168 1038h131l-35 -374h-63z" />
<glyph unicode="+" horiz-adv-x="464" d="M2 195v124h168v181h125v-181h168v-124h-168v-199h-125v199h-168z" />
<glyph unicode="," horiz-adv-x="464" d="M90 -233l90 231v131h131v-131l-190 -231h-31z" />
<glyph unicode="-" horiz-adv-x="464" d="M53 489v125h361v-125h-361z" />
<glyph unicode="." horiz-adv-x="464" d="M170 0v125h125v-125h-125z" />
<glyph unicode="/" horiz-adv-x="464" d="M2 -4l340 1040h125l-340 -1040h-125z" />
<glyph unicode="0" d="M170 295v446q0 61 22.5 115.5t62.5 94.5t94 63.5t116 23.5q61 0 114.5 -23.5t93.5 -63.5t63.5 -94t23.5 -116v-446q0 -61 -23.5 -114.5t-63.5 -93.5t-93.5 -63.5t-114.5 -23.5t-115.5 23.5t-94.5 63.5t-62.5 93t-22.5 115zM297 233q0 -70 48 -118.5t120 -48.5t120 49 t48 118v570q0 72 -48 121t-120 49t-120 -49.5t-48 -120.5v-570z" />
<glyph unicode="1" horiz-adv-x="464" d="M-49 492l272 544h72v-1036h-125v715l-131 -271z" />
<glyph unicode="2" d="M170 0v279q0 61 23.5 114t63.5 93t94.5 63.5t115.5 23.5q72 0 121 48.5t49 117.5q0 133 -49 182.5t-121 49.5t-121 -49.5t-49 -182.5h-127q0 61 23.5 115.5t63.5 94.5t94.5 63.5t115.5 23.5t115.5 -23.5t94.5 -63.5t63.5 -94t23.5 -116q0 -61 -23.5 -114.5t-64.5 -93 t-94.5 -62.5t-114.5 -23q-72 0 -121 -49t-49 -118v-193h465v-86h-592z" />
<glyph unicode="3" d="M170 289h127q0 -131 49 -180.5t119 -49.5q72 0 120 49.5t48 180.5v33q0 33 -12.5 62.5t-35 51t-53 34.5t-65.5 13v82q72 0 119 48.5t47 113.5q0 150 -47 199t-119 49q-35 0 -65.5 -13.5t-53 -35t-36 -51t-13.5 -123.5h-127q0 57 22.5 109t62.5 91t94.5 61.5t115.5 22.5 t114.5 -22.5t93.5 -62.5t62.5 -92t22.5 -111q0 -68 -30 -126.5t-83 -97.5q53 -41 83 -98t30 -125v-12q0 -61 -23.5 -114.5t-63.5 -93.5t-93.5 -63.5t-114.5 -23.5t-114.5 23.5t-93.5 63.5t-63.5 93t-23.5 115z" />
<glyph unicode="4" d="M170 297l246 739h102l-199 -655h152v211h125v-211h156v-84h-156v-297h-125v297h-301z" />
<glyph unicode="5" d="M170 289h127q0 -131 48 -180.5t120 -49.5t120 49.5t48 180.5v73q0 70 -48 118t-120 48h-295v510h586v-84h-459v-364h168q61 0 114.5 -22.5t93.5 -61.5t63.5 -92.5t23.5 -112.5v-12q0 -61 -23.5 -114.5t-63.5 -93.5t-93.5 -63.5t-114.5 -23.5t-115.5 23.5t-94.5 63.5 t-62.5 93t-22.5 115z" />
<glyph unicode="6" d="M170 295v12v434q0 61 22.5 114.5t62.5 93.5t94 63.5t116 23.5q61 0 114.5 -23.5t93.5 -63.5t63.5 -93t23.5 -115h-127q0 131 -48 180.5t-120 49.5t-120 -49.5t-48 -180.5v-192q72 53 168 53q61 0 114.5 -23.5t93.5 -63.5t63.5 -93t23.5 -115v-12q0 -61 -23.5 -115.5 t-63.5 -94.5t-93.5 -62.5t-114.5 -22.5t-115.5 22.5t-94.5 62.5t-62.5 94t-22.5 116zM297 295q0 -133 48 -182.5t120 -49.5t120 49.5t48 182.5v12q0 131 -48 180.5t-120 49.5t-120 -49.5t-48 -180.5v-12z" />
<glyph unicode="7" d="M-61 952v86h593l-235 -759v-279h-127v305l207 647h-438z" />
<glyph unicode="8" d="M170 295v16q0 68 29.5 125.5t83.5 95.5q-53 39 -83 97.5t-30 126.5q0 57 22.5 108t62.5 90t93 60.5t115 21.5q61 0 114.5 -21.5t93.5 -60.5t63.5 -90t23.5 -108q0 -66 -30 -124t-81 -97q51 -41 82 -98.5t31 -125.5v-16q0 -61 -23.5 -115.5t-63.5 -94.5t-93.5 -62.5 t-114.5 -22.5t-115.5 22.5t-94.5 62.5t-62.5 94t-22.5 116zM297 295q0 -133 48 -182.5t120 -49.5t120 49.5t48 182.5v16q0 109 -48 157t-120 48t-120 -48t-48 -157v-16zM297 756q0 -74 13.5 -103.5t36 -51t52 -35t64.5 -13.5t65.5 13.5t53 35t36 51t13.5 103.5 q0 33 -13.5 93t-36 81.5t-53 34t-65.5 12.5q-70 0 -118 -47t-48 -174z" />
<glyph unicode="9" d="M170 295h127q0 -133 48 -181t120 -48t120 48t48 181v205q-35 -27 -78 -41.5t-90 -14.5q-61 0 -115.5 24t-94.5 63.5t-62.5 93t-22.5 114.5t22.5 115.5t62.5 96.5t94.5 65.5t115.5 23.5t114.5 -23.5t93.5 -63.5t63.5 -93t23.5 -115v-6v-444q0 -61 -23.5 -115.5 t-63.5 -94.5t-93.5 -62.5t-114.5 -22.5t-115.5 22.5t-94.5 62.5t-62.5 94t-22.5 116zM297 739q0 -131 48 -180t120 -49t120 52t48 183q0 133 -48 182.5t-120 49.5t-120 -52.5t-48 -185.5z" />
<glyph unicode=":" horiz-adv-x="464" d="M174 4v125h125v-125h-125zM176 434v127h127v-127h-127z" />
<glyph unicode=";" horiz-adv-x="464" d="M90 -221l86 221v125h127v-125l-182 -221h-31zM176 434v127h127v-127h-127z" />
<glyph unicode="&#x3c;" horiz-adv-x="464" d="M6 518l338 516h125l-319 -516l319 -522h-125z" />
<glyph unicode="=" horiz-adv-x="464" d="M53 -2v127h361v-127h-361zM53 489v125h361v-125h-361z" />
<glyph unicode="&#x3e;" horiz-adv-x="464" d="M2 -2l356 524l-356 520h131l363 -520l-363 -524h-131z" />
<glyph unicode="?" d="M168 614v242q0 37 23.5 68.5t63.5 55.5t94 38t116 14q61 0 114.5 -13t93.5 -38t63.5 -56.5t23.5 -68.5q0 -59 5 -114.5t-2 -101.5t-34 -78t-90 -42t-89 -45t-34 -76q-8 -47 2 -102h-135q-4 72 14 133q14 53 51 100.5t111 63.5q39 8 55.5 27.5t20.5 52.5t1 78t-3 139 q0 41 -49 70.5t-119 29.5q-72 0 -121 -29.5t-49 -70.5v-277h-127zM389 4v137h135q0 -39 1 -80t1 -57h-137z" />
<glyph unicode="@" horiz-adv-x="925" d="M170 295q0 -61 22.5 -115.5t62.5 -94.5t94 -62.5t116 -22.5q61 0 114.5 22.5t93.5 62.5t63.5 94t23.5 116v225h-125l-2 -287q0 -35 -14.5 -66.5t-37 -54t-53 -36t-63.5 -13.5q-72 0 -120 49.5t-48 120.5v412h463v96q0 61 -23.5 114.5t-63.5 93.5t-93.5 63.5t-114.5 23.5 t-115.5 -23.5t-94.5 -63.5t-62.5 -93t-22.5 -115v-446zM297 727v14q0 68 12.5 112t35 69.5t53 37t67.5 11.5t67.5 -11.5t53 -37t35 -69.5t12.5 -112v-14h-336zM362 1118l170 248h177l-246 -248h-101z" />
<glyph unicode="A" d="M170 0v369v135v117.5t1 84.5l1 33q0 61 22.5 115.5t62.5 94.5t93 63.5t115 23.5q61 0 114.5 -23.5t93.5 -63.5t63.5 -94t23.5 -116v-739h-125v260v301h-340v-561h-125zM293 647h346l-2 154q-4 72 -52 121t-120 49t-120 -49.5t-52 -120.5v-154z" />
<glyph unicode="B" d="M170 342v694h412q41 0 73.5 -17.5t56 -46t36 -65.5t12.5 -73v-23q0 -80 -47 -139q47 -59 47 -140v-190q0 -66 -21.5 -128t-60.5 -109.5t-93.5 -76t-119.5 -28.5q-66 0 -119 28.5t-93 76t-61.5 109.5t-21.5 128zM297 281q0 -49 14.5 -89t39 -68t54 -43t60.5 -15t60.5 15 t54 43t39 67.5t14.5 89.5v272q0 41 -18.5 58.5t-32.5 17.5h-68h-217v-348zM297 715h217h68q14 0 32.5 17.5t18.5 58.5v104q0 41 -18.5 58.5t-32.5 17.5h-285v-256z" />
<glyph unicode="C" d="M170 295v446q0 61 22.5 114.5t62.5 93.5t94 63.5t116 23.5q61 0 114.5 -23.5t93.5 -63.5t63.5 -93t23.5 -115h-127q0 133 -48 181.5t-120 48.5t-120 -48.5t-48 -119.5v-570q0 -72 48 -121t120 -49t120 49.5t48 120.5v285h127v-223q0 -61 -23.5 -115.5t-63.5 -94.5 t-93.5 -62.5t-114.5 -22.5t-115.5 22.5t-94.5 62.5t-62.5 94t-22.5 116z" />
<glyph unicode="D" d="M170 342v694h412q41 0 73.5 -17.5t56 -46t36 -65.5t12.5 -73v-492q0 -66 -21.5 -128t-60.5 -109.5t-93.5 -76t-119.5 -28.5q-66 0 -119 28.5t-93 76t-61.5 109.5t-21.5 128zM297 281q0 -49 15.5 -89t39 -68t53 -43t60.5 -15t60.5 15t54 43t39 67.5t14.5 89.5v614 q0 41 -18.5 58.5t-32.5 17.5h-285v-690z" />
<glyph unicode="E" d="M170 0v1036h590v-86h-463v-303h246v-86h-246v-471h463v-90h-590z" />
<glyph unicode="F" horiz-adv-x="464" d="M170 0v1036h342v-84h-217v-307h104v-86h-104v-559h-125z" />
<glyph unicode="G" d="M170 293v448q0 61 22.5 114.5t62.5 93.5t94 63.5t116 23.5q61 0 114.5 -23.5t93.5 -63.5t63.5 -93t23.5 -115h-127q0 131 -48 180.5t-120 49.5t-120 -49.5t-48 -180.5v-510q0 -70 48 -119t120 -49t120 49.5t48 118.5v330h-90v86h217v-354q0 -61 -23.5 -114.5t-63.5 -93.5 t-93.5 -63.5t-114.5 -23.5t-115.5 23.5t-94.5 63.5t-62.5 93t-22.5 115z" />
<glyph unicode="H" d="M170 0v1036h127v-391h336v391h127v-1036h-127v561h-336v-561h-127z" />
<glyph unicode="I" horiz-adv-x="464" d="M170 0v1036h125v-1036h-125z" />
<glyph unicode="J" d="M170 299v221h127v-282q0 -70 48 -119t120 -49t120 49t48 119v712h-90v86h153h156v-86h-92v-651q0 -61 -23.5 -115.5t-63.5 -94.5t-93.5 -62.5t-114.5 -22.5t-115.5 22.5t-94.5 62.5t-62.5 94.5t-22.5 115.5z" />
<glyph unicode="K" d="M170 0v756v63v217h127v-237h168q72 0 120 49t48 121v67h127v-47q0 -72 -30 -132t-83 -101q53 -41 83 -100.5t30 -131.5v-524h-127v545q0 72 -48 120t-120 48h-168v-713h-127z" />
<glyph unicode="L" d="M170 0v1040h127v-956h471v-84h-598z" />
<glyph unicode="M" horiz-adv-x="1394" d="M170 0v1038h119l407 -385l410 385h119v-1038h-127v909l-338 -307v-602h-127v602l-336 307v-909h-127z" />
<glyph unicode="N" d="M170 0v1038h96l367 -344v344h127v-1038h-127v584l-336 307v-891h-127z" />
<glyph unicode="O" d="M170 295v446q0 61 22.5 115.5t62.5 94.5t94 63.5t116 23.5q61 0 114.5 -23.5t93.5 -63.5t63.5 -94t23.5 -116v-446q0 -61 -23.5 -114.5t-63.5 -93.5t-93.5 -63.5t-114.5 -23.5t-115.5 23.5t-94.5 63.5t-62.5 93t-22.5 115zM297 233q0 -70 48 -118.5t120 -48.5t120 49 t48 118v570q0 72 -48 121t-120 49t-120 -49.5t-48 -120.5v-570z" />
<glyph unicode="P" horiz-adv-x="464" d="M170 4v1036h135q61 0 114.5 -19.5t91.5 -53t59.5 -77.5t21.5 -95v-21q0 -51 -21.5 -95t-59.5 -77t-91 -52.5t-115 -19.5h-10v-526h-125zM295 571h10q72 0 122 41t50 101v143q0 59 -50 100t-122 41h-10v-426z" />
<glyph unicode="Q" d="M170 293v397v53q0 61 22.5 114.5t62.5 93.5t94 63.5t116 23.5q61 0 114.5 -23.5t93.5 -63.5t63.5 -93t23.5 -115v-450q0 -88 -47 -158l47 -47l-90 -88l-45 45q-35 -23 -75 -35t-85 -12q-61 0 -115.5 23.5t-94.5 63.5t-62.5 93t-22.5 115zM297 231q0 -70 48 -119t120 -49 q37 0 65 15l-32 33l90 90l33 -35q12 31 12 65v574q0 70 -48 119t-120 49t-120 -49.5t-48 -118.5v-574z" />
<glyph unicode="R" d="M170 4v723v311h295q61 0 114.5 -15t93.5 -42t63.5 -63.5t23.5 -77.5q0 -47 -30 -88t-83 -68q27 -14 47.5 -26.5t34.5 -29t22.5 -39t8.5 -57.5v-528h-127v549q0 35 -13.5 56.5t-36 32.5t-53 15.5t-65.5 4.5h-168v-658h-127zM297 737h168q72 0 120 22.5t48 92.5 q0 74 -48 98.5t-120 24.5l-168 -2v-236z" />
<glyph unicode="S" d="M170 295v225h127v-287q0 -72 48 -121t120 -49t120 49.5t48 120.5v308q0 47 -48 80.5t-120 33.5q-61 0 -115.5 15.5t-94.5 43t-62.5 64.5t-22.5 60q0 43 22.5 79.5t62.5 64.5t94 43t116 15q61 0 114.5 -15t93.5 -43t63.5 -64.5t23.5 -79.5h-127q0 45 -12.5 72.5t-35 42 t-53 18.5t-67.5 4q-72 0 -120 -23.5t-48 -72.5q0 -63 12.5 -90t35 -41.5t53 -19.5t67.5 -5q61 0 123.5 -17.5t97.5 -46t54.5 -62.5t19.5 -56v-246q0 -61 -23.5 -115.5t-63.5 -94.5t-93.5 -62.5t-114.5 -22.5t-115.5 22.5t-94.5 62.5t-62.5 94t-22.5 116z" />
<glyph unicode="T" horiz-adv-x="464" d="M0 950v86h465v-86h-170v-950h-125v950h-170z" />
<glyph unicode="U" d="M170 295v741h127v-803q0 -70 48 -118.5t120 -48.5t120 49t48 118v803h127v-741q0 -61 -23.5 -115.5t-63.5 -94.5t-93.5 -62.5t-114.5 -22.5t-115.5 22.5t-94.5 62.5t-62.5 94t-22.5 116z" />
<glyph unicode="V" d="M170 485v551h127v-520l168 -399l168 399v520h127v-551l-248 -485h-92z" />
<glyph unicode="W" horiz-adv-x="1394" d="M170 498v540h127v-510l168 -399l170 399v510h127v-510l168 -399l170 399v510h125v-540l-250 -496h-92l-185 369l-186 -369h-94z" />
<glyph unicode="X" d="M170 0v608l154 78l-154 78v274h127v-196l168 -125l170 125v196h125v-274l-154 -78l154 -78v-608h-125v530l-170 125l-168 -125v-530h-127z" />
<glyph unicode="Y" horiz-adv-x="464" d="M-61 1038h127l167 -436l168 436h127l-233 -518v-520h-125v520z" />
<glyph unicode="Z" d="M170 952v86h590l-432 -952h432v-86h-586l430 952h-434z" />
<glyph unicode="[" horiz-adv-x="925" />
<glyph unicode="^" d="M197 1122v92l270 271l297 -271v-92l-297 195z" />
<glyph unicode="_" horiz-adv-x="464" d="M170 2v877h125v-877h-125zM170 1096v129h125v-129h-125z" />
<glyph unicode="a" d="M170 299v285q0 61 22.5 114.5t62.5 93t94 63.5t116 24q61 0 114.5 -24t93.5 -63.5t63.5 -93t23.5 -114.5v-580h-125v53q-76 -53 -170 -53q-61 0 -115.5 23.5t-94.5 63.5t-62.5 93.5t-22.5 114.5zM297 238q0 -70 49 -119t119 -49q72 0 121 49t49 119v407q0 70 -49 119 t-121 49q-70 0 -119 -49t-49 -119v-407z" />
<glyph unicode="b" d="M170 297v1092h125l-2 -570q76 53 174 53q61 0 114.5 -22.5t93.5 -62t62.5 -93t22.5 -114.5v-283q0 -61 -23.5 -114.5t-64.5 -93.5t-94.5 -62.5t-114.5 -22.5t-114.5 22.5t-93.5 62.5t-62.5 93.5t-22.5 114.5zM299 236q0 -70 49 -119t119 -49t119 49t49 119v405 q0 70 -49 119t-119 49t-119 -49t-49 -119v-405z" />
<glyph unicode="c" d="M170 297v285q0 61 22.5 115.5t62.5 94t94 63.5t116 24q61 0 115.5 -24t94.5 -63.5t63.5 -94t23.5 -115.5v-19h-127v80q0 72 -49 121t-121 49t-120 -49t-48 -121v-407q0 -72 48 -121t120 -49t121 49t49 121v202h127v-141q0 -61 -23.5 -115.5t-63.5 -94.5t-94.5 -63.5 t-115.5 -23.5t-115.5 23.5t-94.5 63.5t-62.5 94.5t-22.5 115.5z" />
<glyph unicode="d" d="M170 297v289q0 61 23.5 114.5t64.5 93.5t94.5 62.5t114.5 22.5q92 0 168 -54v564h125v-1092q0 -61 -22.5 -114.5t-62.5 -93.5t-93.5 -62.5t-114.5 -22.5t-114.5 22.5t-94.5 62.5t-64.5 93.5t-23.5 114.5zM295 236q0 -70 51 -119t121 -49t119 49t49 119v411q0 70 -49 119 t-119 49t-121 -49t-51 -119v-411z" />
<glyph unicode="e" d="M170 301v281q0 61 22.5 115.5t62.5 94t94 63.5t116 24q61 0 115.5 -24t94.5 -63.5t63.5 -94t23.5 -115.5v-41h-465v-301q0 -72 48 -121t120 -49t121 49t49 121v198h127v-137q0 -61 -23.5 -115.5t-63.5 -94.5t-94.5 -63.5t-115.5 -23.5t-115.5 23.5t-94.5 63.5t-62.5 94.5 t-22.5 115.5zM303 627h326q-8 59 -23.5 95t-37 55.5t-47 27.5t-56.5 14q-31 -6 -56.5 -14t-46 -27.5t-36 -55.5t-23.5 -95z" />
<glyph unicode="f" horiz-adv-x="464" d="M133 795v82h37v223q0 59 23.5 111.5t63.5 91t93 61t113 22.5v-61q-68 0 -118 -48t-50 -116v-284h88v-82h-88v-795h-125v795h-37z" />
<glyph unicode="g" d="M170 -154h123q0 -96 15.5 -125.5t40 -51t56 -35t66.5 -13.5q68 0 116 48t48 116v268q-70 -51 -164 -51q-59 0 -114.5 22.5t-96.5 61.5t-65.5 92t-24.5 113v297q0 59 24.5 112.5t65.5 92t96.5 61.5t114.5 23t112.5 -23t92.5 -61.5t61.5 -92t22.5 -112.5v-742 q0 -59 -22.5 -112t-61.5 -92t-92.5 -61.5t-112.5 -22.5t-114.5 22.5t-96.5 61.5t-65.5 92t-24.5 112zM293 229q0 -35 15.5 -64.5t40 -52t56 -36t66.5 -13.5q68 0 116 48.5t48 117.5v420q0 70 -48 118t-116 48q-35 0 -66.5 -13.5t-56 -36t-40 -52t-15.5 -64.5v-420z" />
<glyph unicode="h" d="M170 4v1385h125v-566q72 53 172 54q61 0 114.5 -23t93.5 -62.5t62.5 -93t22.5 -114.5v-580h-125v641q0 70 -49 119t-119 49t-121 -49t-51 -119v-641h-125z" />
<glyph unicode="i" d="M170 293v584h125v-646q0 -70 49 -119t119 -49t119 49.5t49 118.5v207h125v-145q0 -61 -22.5 -114.5t-62.5 -93.5t-93.5 -62.5t-114.5 -22.5t-114.5 22.5t-93.5 62.5t-62.5 93t-22.5 115zM170 1081v127h125v-127h-125z" />
<glyph unicode="j" horiz-adv-x="464" d="M2 -403q72 0 120 44t48 107v1131h125v-1069q0 -55 -21.5 -103.5t-60.5 -84.5t-93 -56.5t-118 -20.5v52zM168 1112v129h123v-129h-123z" />
<glyph unicode="k" d="M170 0v1247h125l2 -422l309 420h103l-371 -520q61 6 83.5 9t45.5 3q61 0 114.5 -22.5t93.5 -62.5t62.5 -93t22.5 -115v-444h-125v506q0 70 -49 119t-119 49t-121 -49.5t-51 -118.5v-506h-125z" />
<glyph unicode="l" horiz-adv-x="464" d="M170 0v1389h125v-1389h-125z" />
<glyph unicode="m" horiz-adv-x="1394" d="M170 0v584q0 61 22.5 114.5t62.5 93t94 63.5t116 24q72 0 131 -31t100 -82q41 51 101.5 82t132.5 31q61 0 114.5 -24t93.5 -63.5t63.5 -93t23.5 -114.5v-584h-127v645q0 70 -49.5 119t-118.5 49q-72 0 -121 -49t-49 -119v-645h-127v645q0 70 -49 119t-119 49 q-72 0 -121 -49t-49 -119v-645h-125z" />
<glyph unicode="n" d="M170 0v582q0 61 22.5 115.5t62.5 94t93 63.5t115 24q61 0 115.5 -24t94.5 -63.5t63.5 -94t23.5 -115.5v-582h-127v643q0 72 -49 121t-121 49t-119 -49t-47 -121v-643h-127z" />
<glyph unicode="o" d="M170 289v295q0 61 23.5 114.5t63.5 93t94.5 63.5t115.5 24t114.5 -24t93.5 -63.5t62.5 -93t22.5 -114.5v-295q0 -61 -22.5 -113.5t-62.5 -92.5t-93.5 -62.5t-114.5 -22.5t-115.5 22.5t-94.5 62.5t-63.5 92t-23.5 114zM295 227q0 -70 50 -117t122 -47q70 0 119 47.5 t49 116.5v418q0 72 -49 121t-119 49q-72 0 -122 -49t-50 -121v-418z" />
<glyph unicode="p" d="M170 -393v973q0 61 22.5 116.5t61.5 95t92 63.5t115 24q61 0 116.5 -24t95.5 -63.5t63.5 -95t23.5 -116.5v-279q0 -61 -23.5 -115.5t-63.5 -95.5t-95.5 -64.5t-116.5 -23.5q-47 0 -86 14.5t-76 38.5l-2 -448h-127zM297 240q0 -72 46 -121t118 -49t122 49t50 121v401 q0 72 -50.5 121t-121.5 49q-72 0 -118 -49t-46 -121v-401z" />
<glyph unicode="q" d="M170 303v277q0 61 22.5 116.5t61.5 95t92 63.5t115 24q61 0 116.5 -24t95.5 -63.5t63.5 -95t23.5 -116.5v-973h-127l2 450q-78 -55 -174 -55q-61 0 -114.5 23.5t-92.5 64.5t-61.5 96.5t-22.5 116.5zM297 242q0 -72 46 -122t118 -50q35 0 66.5 13t55 36.5t37 54.5t13.5 68 v399q0 72 -50 122t-122 50t-118 -50t-46 -122v-399z" />
<glyph unicode="r" horiz-adv-x="464" d="M170 0v575v3v299h125v-56q35 25 79 39t91 14v-65q-70 0 -120 -49t-50 -121v-2v-637h-125z" />
<glyph unicode="s" d="M168 293v145h125v-207q0 -70 49 -119t121 -49q70 0 119 49.5t49 118.5v211q0 51 -28 77t-64 26h-78q-45 0 -85 14t-70 38t-47 56.5t-17 48.5q0 37 17 69t47 55.5t70 38t85 14.5t85 -14.5t69.5 -38t47 -55.5t17.5 -69h-127q0 92 -26.5 114t-65.5 22t-65.5 -21.5 t-26.5 -114.5q0 -51 26.5 -73.5t65.5 -22.5h78q45 0 86 -15.5t69.5 -41t46 -59t17.5 -48.5v-149q0 -61 -23.5 -114.5t-63.5 -93.5t-93.5 -62.5t-114.5 -22.5t-115.5 22.5t-94.5 62.5t-62.5 93t-22.5 115z" />
<glyph unicode="t" d="M88 795v84h84v510h127v-510h168v-84h-152v-566q0 -72 40 -120t112 -48q70 0 118 48.5t48 119.5v209h127v-147q0 -61 -22.5 -114.5t-62.5 -93.5t-93.5 -62.5t-114.5 -22.5t-115.5 22.5t-94.5 62.5t-62.5 93t-22.5 115v504h-84z" />
<glyph unicode="u" d="M170 295v582h127v-644q0 -72 48 -121t118 -49q72 0 121 49.5t49 120.5v644h125l2 -582q0 -61 -23.5 -115.5t-63.5 -94.5t-94.5 -63.5t-115.5 -23.5t-114.5 23.5t-93.5 63.5t-62.5 94t-22.5 116z" />
<glyph unicode="v" d="M170 410v469h127v-439l168 -358l168 358v439h127v-469l-248 -410h-92z" />
<glyph unicode="w" horiz-adv-x="1394" d="M170 406v473h127v-443l168 -348l170 348v443h127v-443l168 -348l170 348v443h125v-473l-250 -404h-92l-185 277l-186 -277h-94z" />
<glyph unicode="x" d="M170 0v520l154 78l-154 78v201h127v-123l168 -125l170 125v123h125v-201l-154 -78l154 -78v-520h-125v442l-170 125l-168 -125v-442h-127z" />
<glyph unicode="y" d="M170 293v586h125v-648q0 -70 50 -119t120 -49q72 0 121 49.5t49 118.5v648h125v-1268h-125v440q-78 -51 -170 -51q-61 0 -114.5 22.5t-93.5 62.5t-63.5 93t-23.5 115z" />
<glyph unicode="z" d="M170 0l410 791h-408v86h592l-410 -791h406v-86h-590z" />
<glyph unicode="|" d="M176 291v747h125v-809q0 -70 49 -119t119 -49t119 49.5t49 118.5v291h125v-229q0 -61 -22.5 -114.5t-62.5 -93.5t-93.5 -62.5t-114.5 -22.5t-114.5 22.5t-93.5 62.5t-62.5 93t-22.5 115z" />
<glyph unicode="&#xa0;" />
<glyph unicode="&#xa8;" d="M240 1159v131h131v-131h-131zM569 1159v131h131v-131h-131z" />
<glyph unicode="&#xad;" horiz-adv-x="464" d="M53 489v125h361v-125h-361z" />
<glyph unicode="&#xba;" d="M170 295v582h127v-644q0 -72 48 -121t118 -49q72 0 121 49.5t49 120.5v644h125l2 -582q0 -10 -1 -18.5t-1 -18.5v-258h-125v51q-76 -53 -170 -53q-61 0 -114.5 23.5t-93.5 63.5t-62.5 94t-22.5 116z" />
<glyph unicode="&#xc0;" d="M170 0v369v135v117.5t1 84.5l1 33q0 61 22.5 115.5t62.5 94.5t93 63.5t115 23.5q61 0 114.5 -23.5t93.5 -63.5t63.5 -94t23.5 -116v-739h-125v260v260h-340v-520h-125zM260 1376h176l170 -248h-100zM293 647h346l-2 154q-4 72 -52 121t-120 49t-120 -49.5t-52 -120.5 v-154z" />
<glyph unicode="&#xc1;" d="M170 0v369v135v117.5t1 84.5l1 33q0 61 22.5 115.5t62.5 94.5t93 63.5t115 23.5q61 0 114.5 -23.5t93.5 -63.5t63.5 -94t23.5 -116v-739h-125v260v301h-340v-561h-125zM293 647h346l-2 154q-4 72 -52 121t-120 49t-120 -49.5t-52 -120.5v-154zM362 1118l170 248h177 l-246 -248h-101z" />
<glyph unicode="&#xc2;" d="M170 0v369v135v117.5t1 84.5l1 33q0 61 22.5 115.5t62.5 94.5t93 63.5t115 23.5q61 0 114.5 -23.5t93.5 -63.5t63.5 -94t23.5 -116v-739h-125v260v301h-340v-561h-125zM197 1102v92l268 270l297 -270v-92l-297 194zM293 647h346l-2 154q-4 72 -52 121t-120 49t-120 -49.5 t-52 -120.5v-154z" />
<glyph unicode="&#xc4;" d="M170 0v369v135v117.5t1 84.5l1 33q0 61 22.5 115.5t62.5 94.5t93 63.5t115 23.5q61 0 114.5 -23.5t93.5 -63.5t63.5 -94t23.5 -116v-739h-125v260v301h-340v-561h-125zM240 1159v131h131v-131h-131zM293 647h346l-2 154q-4 72 -52 121t-120 49t-120 -49.5t-52 -120.5 v-154zM569 1159v131h131v-131h-131z" />
<glyph unicode="&#xc7;" d="M170 4v1032h604v-86h-477v-860h477v-86h-604z" />
<glyph unicode="&#xc8;" d="M170 0v1036h590v-86h-463v-303h246v-86h-246v-471h463v-90h-590zM279 1360h176l170 -248h-101z" />
<glyph unicode="&#xc9;" d="M170 0v1036h590v-86h-463v-303h246v-86h-246v-471h463v-90h-590zM362 1118l170 248h177l-246 -248h-101z" />
<glyph unicode="&#xca;" d="M170 0v1036h590v-86h-463v-432h246v-86h-246v-342h463v-90h-590zM362 1118l170 248h177l-246 -248h-101z" />
<glyph unicode="&#xcb;" d="M170 0v1036h590v-86h-463v-303h246v-86h-246v-471h463v-90h-590zM240 1159v131h131v-131h-131zM569 1159v131h131v-131h-131z" />
<glyph unicode="&#xce;" horiz-adv-x="464" d="M-29 1102v92l269 270l297 -270v-92l-297 194zM170 0v1036h125v-1036h-125z" />
<glyph unicode="&#xcf;" horiz-adv-x="464" d="M-129 256v25h127v-86q0 -66 13.5 -99t72.5 -33q51 0 66.5 37t15.5 95v755h-164v86h225h232v-86h-168v-694q0 -123 -42 -190.5t-165 -67.5q-59 0 -100 21.5t-65.5 56.5t-36 82t-11.5 98z" />
<glyph unicode="&#xd3;" d="M170 295v446q0 61 22.5 115.5t62.5 94.5t94 63.5t116 23.5q61 0 114.5 -23.5t93.5 -63.5t63.5 -94t23.5 -116v-446q0 -61 -23.5 -114.5t-63.5 -93.5t-93.5 -63.5t-114.5 -23.5t-115.5 23.5t-94.5 63.5t-62.5 93t-22.5 115zM297 233q0 -70 48 -118.5t120 -48.5t120 49 t48 118v570q0 72 -48 121t-120 49t-120 -49.5t-48 -120.5v-570zM362 1118l170 248h177l-246 -248h-101z" />
<glyph unicode="&#xd4;" d="M170 295v446q0 61 22.5 115.5t62.5 94.5t94 63.5t116 23.5q61 0 114.5 -23.5t93.5 -63.5t63.5 -94t23.5 -116v-446q0 -61 -23.5 -114.5t-63.5 -93.5t-93.5 -63.5t-114.5 -23.5t-115.5 23.5t-94.5 63.5t-62.5 93t-22.5 115zM197 1102v92l268 270l297 -270v-92l-297 194z M297 233q0 -70 48 -118.5t120 -48.5t120 49t48 118v570q0 72 -48 121t-120 49t-120 -49.5t-48 -120.5v-570z" />
<glyph unicode="&#xd6;" d="M170 295v446q0 61 22.5 115.5t62.5 94.5t94 63.5t116 23.5q61 0 114.5 -23.5t93.5 -63.5t63.5 -94t23.5 -116v-446q0 -61 -23.5 -114.5t-63.5 -93.5t-93.5 -63.5t-114.5 -23.5t-115.5 23.5t-94.5 63.5t-62.5 93t-22.5 115zM240 1159v131h131v-131h-131zM297 233 q0 -70 48 -118.5t120 -48.5t120 49t48 118v570q0 72 -48 121t-120 49t-120 -49.5t-48 -120.5v-570zM569 1159v131h131v-131h-131z" />
<glyph unicode="&#xd9;" d="M170 295q0 -61 22.5 -115.5t62.5 -94.5t94 -62.5t116 -22.5q61 0 114.5 22.5t93.5 62.5t63.5 94t23.5 116v741h-127v-803q0 -70 -48 -118.5t-120 -48.5t-120 49t-48 118v803h-127v-741zM279 1360h176l170 -248h-101z" />
<glyph unicode="&#xda;" horiz-adv-x="464" d="M-63 852h129l172 -401l174 401h129l-240 -545l2 -309h-129v309z" />
<glyph unicode="&#xdb;" d="M170 295v741h127v-803q0 -70 48 -118.5t120 -48.5t120 49t48 118v803h127v-741q0 -61 -23.5 -115.5t-63.5 -94.5t-93.5 -62.5t-114.5 -22.5t-115.5 22.5t-94.5 62.5t-62.5 94t-22.5 116zM197 1102v92l268 270l297 -270v-92l-297 194z" />
<glyph unicode="&#xdc;" d="M170 295v741h127v-803q0 -70 48 -118.5t120 -48.5t120 49t48 118v803h127v-741q0 -61 -23.5 -115.5t-63.5 -94.5t-93.5 -62.5t-114.5 -22.5t-115.5 22.5t-94.5 62.5t-62.5 94t-22.5 116zM240 1159v131h131v-131h-131zM569 1159v131h131v-131h-131z" />
<glyph unicode="&#xe0;" d="M170 299v285q0 61 22.5 114.5t62.5 93t94 63.5t116 24q61 0 114.5 -24t93.5 -63.5t63.5 -93t23.5 -114.5v-580h-125v53q-76 -53 -170 -53q-61 0 -115.5 23.5t-94.5 63.5t-62.5 93.5t-22.5 114.5zM279 1217h176l170 -248h-101zM297 238q0 -70 49 -119t119 -49q72 0 121 49 t49 119v407q0 70 -49 119t-121 49q-70 0 -119 -49t-49 -119v-407z" />
<glyph unicode="&#xe2;" d="M170 299v285q0 61 22.5 114.5t62.5 93t94 63.5t116 24q61 0 114.5 -24t93.5 -63.5t63.5 -93t23.5 -114.5v-580h-125v53q-76 -53 -170 -53q-61 0 -115.5 23.5t-94.5 63.5t-62.5 93.5t-22.5 114.5zM197 926v92l268 270l297 -270v-92l-297 194zM297 238q0 -70 49 -119 t119 -49q72 0 121 49t49 119v407q0 70 -49 119t-121 49q-70 0 -119 -49t-49 -119v-407z" />
<glyph unicode="&#xe4;" d="M170 299v285q0 61 22.5 114.5t62.5 93t94 63.5t116 24q61 0 114.5 -24t93.5 -63.5t63.5 -93t23.5 -114.5v-580h-125v53q-76 -53 -170 -53q-61 0 -115.5 23.5t-94.5 63.5t-62.5 93.5t-22.5 114.5zM240 993v131h131v-131h-131zM297 238q0 -70 49 -119t119 -49q72 0 121 49 t49 119v407q0 70 -49 119t-121 49q-70 0 -119 -49t-49 -119v-407zM569 993v131h131v-131h-131z" />
<glyph unicode="&#xe7;" d="M170 297v283q0 61 23.5 115.5t63.5 94t94.5 63.5t115.5 24t115.5 -24t94.5 -63.5t63.5 -94t23.5 -115.5v-19h-127v80q0 72 -49 121t-121 49t-121 -49t-49 -121v-405q0 -72 49 -121t121 -49t121 49t49 121v202h127v-141q0 -61 -23.5 -115.5t-63.5 -94.5t-94.5 -63.5 t-115.5 -23.5t-115.5 23.5t-94.5 63.5t-63.5 94.5t-23.5 115.5zM291 -197h78v-43q0 -53 3 -72.5t15 -38t34.5 -30.5t59.5 -12q43 0 64.5 15.5t31 37t10.5 45t1 88.5v10q0 29 -22.5 49.5t-51.5 20.5h-37q-23 0 -34 7t-15 12.5t-4 17.5v24v70q27 -8 45 -6t39 6v-37 q0 -25 10 -29t25 -4h2q51 0 88 -36.5t37 -87.5v-50q0 -37 -9.5 -71.5t-30 -62t-57 -44t-92.5 -16.5q-49 0 -86 15.5t-59.5 39t-33.5 52t-11 53.5v77z" />
<glyph unicode="&#xe8;" d="M170 301v281q0 61 22.5 115.5t62.5 94t94 63.5t116 24q61 0 115.5 -24t94.5 -63.5t63.5 -94t23.5 -115.5v-41h-465v-301q0 -72 48 -121t120 -49t121 49t49 121v198h127v-137q0 -61 -23.5 -115.5t-63.5 -94.5t-94.5 -63.5t-115.5 -23.5t-115.5 23.5t-94.5 63.5t-62.5 94.5 t-22.5 115.5zM279 1217h176l170 -248h-101zM303 627h326q-8 59 -23.5 95t-37 55.5t-47 27.5t-56.5 14q-31 -6 -56.5 -14t-46 -27.5t-36 -55.5t-23.5 -95z" />
<glyph unicode="&#xe9;" d="M170 301v281q0 61 22.5 115.5t62.5 94t94 63.5t116 24q61 0 115.5 -24t94.5 -63.5t63.5 -94t23.5 -115.5v-41h-465v-301q0 -72 48 -121t120 -49t121 49t49 121v198h127v-137q0 -61 -23.5 -115.5t-63.5 -94.5t-94.5 -63.5t-115.5 -23.5t-115.5 23.5t-94.5 63.5t-62.5 94.5 t-22.5 115.5zM303 627h326q-8 59 -23.5 95t-37 55.5t-47 27.5t-56.5 14q-31 -6 -56.5 -14t-46 -27.5t-36 -55.5t-23.5 -95zM362 969l170 248h177l-246 -248h-101z" />
<glyph unicode="&#xea;" d="M170 301v281q0 61 22.5 115.5t62.5 94t94 63.5t116 24q61 0 115.5 -24t94.5 -63.5t63.5 -94t23.5 -115.5v-41h-465v-301q0 -72 48 -121t120 -49t121 49t49 121v198h127v-137q0 -61 -23.5 -115.5t-63.5 -94.5t-94.5 -63.5t-115.5 -23.5t-115.5 23.5t-94.5 63.5t-62.5 94.5 t-22.5 115.5zM197 938v92l268 270l297 -270v-92l-297 195zM303 627h326q-8 59 -23.5 95t-37 55.5t-47 27.5t-56.5 14q-31 -6 -56.5 -14t-46 -27.5t-36 -55.5t-23.5 -95z" />
<glyph unicode="&#xeb;" d="M170 301v281q0 61 22.5 115.5t62.5 94t94 63.5t116 24q61 0 115.5 -24t94.5 -63.5t63.5 -94t23.5 -115.5v-41h-465v-301q0 -72 48 -121t120 -49t121 49t49 121v198h127v-137q0 -61 -23.5 -115.5t-63.5 -94.5t-94.5 -63.5t-115.5 -23.5t-115.5 23.5t-94.5 63.5t-62.5 94.5 t-22.5 115.5zM240 993v131h131v-131h-131zM303 627h326q-8 59 -23.5 95t-37 55.5t-47 27.5t-56.5 14q-31 -6 -56.5 -14t-46 -27.5t-36 -55.5t-23.5 -95zM569 993v131h131v-131h-131z" />
<glyph unicode="&#xee;" d="M-29 938v92l269 270l297 -270v-92l-297 195zM170 293v584h125v-646q0 -70 49 -119t119 -49t119 49.5t49 118.5v207h125v-145q0 -61 -22.5 -114.5t-62.5 -93.5t-93.5 -62.5t-114.5 -22.5t-114.5 22.5t-93.5 62.5t-62.5 93t-22.5 115z" />
<glyph unicode="&#xef;" d="M14 1159v131h131v-131h-131zM170 293v584h125v-646q0 -70 49 -119t119 -49t119 49.5t49 118.5v207h125v-145q0 -61 -22.5 -114.5t-62.5 -93.5t-93.5 -62.5t-114.5 -22.5t-114.5 22.5t-93.5 62.5t-62.5 93t-22.5 115zM344 1159v131h131v-131h-131z" />
<glyph unicode="&#xf2;" d="M170 289v295q0 61 23.5 114.5t63.5 93t94.5 63.5t115.5 24t114.5 -24t93.5 -63.5t62.5 -93t22.5 -114.5v-295q0 -61 -22.5 -113.5t-62.5 -92.5t-93.5 -62.5t-114.5 -22.5t-115.5 22.5t-94.5 62.5t-63.5 92t-23.5 114zM279 1217h176l170 -248h-101zM295 227q0 -70 50 -117 t122 -47q70 0 119 47.5t49 116.5v418q0 72 -49 121t-119 49q-72 0 -122 -49t-50 -121v-418z" />
<glyph unicode="&#xf3;" d="M170 289v295q0 61 23.5 114.5t63.5 93t94.5 63.5t115.5 24t114.5 -24t93.5 -63.5t62.5 -93t22.5 -114.5v-295q0 -61 -22.5 -113.5t-62.5 -92.5t-93.5 -62.5t-114.5 -22.5t-115.5 22.5t-94.5 62.5t-63.5 92t-23.5 114zM295 227q0 -70 50 -117t122 -47q70 0 119 47.5 t49 116.5v418q0 72 -49 121t-119 49q-72 0 -122 -49t-50 -121v-418zM362 969l170 248h177l-246 -248h-101z" />
<glyph unicode="&#xf4;" d="M170 289v295q0 61 23.5 114.5t63.5 93t94.5 63.5t115.5 24t114.5 -24t93.5 -63.5t62.5 -93t22.5 -114.5v-295q0 -61 -22.5 -113.5t-62.5 -92.5t-93.5 -62.5t-114.5 -22.5t-115.5 22.5t-94.5 62.5t-63.5 92t-23.5 114zM197 938v92l268 270l297 -270v-92l-297 195zM295 227 q0 -70 50 -117t122 -47q70 0 119 47.5t49 116.5v418q0 72 -49 121t-119 49q-72 0 -122 -49t-50 -121v-418z" />
<glyph unicode="&#xf6;" d="M170 289v295q0 61 23.5 114.5t63.5 93t94.5 63.5t115.5 24t114.5 -24t93.5 -63.5t62.5 -93t22.5 -114.5v-295q0 -61 -22.5 -113.5t-62.5 -92.5t-93.5 -62.5t-114.5 -22.5t-115.5 22.5t-94.5 62.5t-63.5 92t-23.5 114zM240 993v131h131v-131h-131zM295 227q0 -70 50 -117 t122 -47q70 0 119 47.5t49 116.5v418q0 72 -49 121t-119 49q-72 0 -122 -49t-50 -121v-418zM569 993v131h131v-131h-131z" />
<glyph unicode="&#xf8;" d="M170 0v369v135v117.5t1 84.5l1 33q0 61 22.5 115.5t62.5 94.5t93 63.5t115 23.5q61 0 114.5 -23.5t93.5 -63.5t63.5 -94t23.5 -116v-739h-125v260v301h-340v-561h-125zM260 1376h176l170 -248h-100zM293 647h346l-2 154q-4 72 -52 121t-120 49t-120 -49.5t-52 -120.5 v-154z" />
<glyph unicode="&#xf9;" d="M170 295q0 -61 22.5 -115.5t62.5 -94.5t93 -63.5t115 -23.5q61 0 115.5 23.5t94.5 63.5t63.5 94t23.5 116l-2 582h-125v-644q0 -72 -49 -121t-121 -49q-70 0 -118 49.5t-48 120.5v644h-127v-582zM289 1217h155l170 -248h-79z" />
<glyph unicode="&#xfb;" d="M170 295v582h127v-644q0 -72 48 -121t118 -49q72 0 121 49.5t49 120.5v644h125l2 -582q0 -61 -23.5 -115.5t-63.5 -94.5t-94.5 -63.5t-115.5 -23.5t-114.5 23.5t-93.5 63.5t-62.5 94t-22.5 116zM197 938v92l268 270l297 -270v-92l-297 195z" />
<glyph unicode="&#xfc;" d="M170 295v582h127v-644q0 -72 48 -121t118 -49q72 0 121 49.5t49 120.5v644h125l2 -582q0 -61 -23.5 -115.5t-63.5 -94.5t-94.5 -63.5t-115.5 -23.5t-114.5 23.5t-93.5 63.5t-62.5 94t-22.5 116zM240 993v131h131v-131h-131zM569 993v131h131v-131h-131z" />
<glyph unicode="&#x2000;" horiz-adv-x="742" />
<glyph unicode="&#x2001;" horiz-adv-x="1485" />
<glyph unicode="&#x2002;" horiz-adv-x="742" />
<glyph unicode="&#x2003;" horiz-adv-x="1485" />
<glyph unicode="&#x2004;" horiz-adv-x="495" />
<glyph unicode="&#x2005;" horiz-adv-x="371" />
<glyph unicode="&#x2006;" horiz-adv-x="247" />
<glyph unicode="&#x2007;" horiz-adv-x="247" />
<glyph unicode="&#x2008;" horiz-adv-x="185" />
<glyph unicode="&#x2009;" horiz-adv-x="297" />
<glyph unicode="&#x200a;" horiz-adv-x="82" />
<glyph unicode="&#x2010;" horiz-adv-x="464" d="M53 489v125h361v-125h-361z" />
<glyph unicode="&#x2011;" horiz-adv-x="464" d="M53 489v125h361v-125h-361z" />
<glyph unicode="&#x2012;" horiz-adv-x="464" d="M53 489v125h361v-125h-361z" />
<glyph unicode="&#x2013;" horiz-adv-x="1127" d="M53 489v125h1024v-125h-1024z" />
<glyph unicode="&#x2014;" horiz-adv-x="2151" d="M53 489v125h2048v-125h-2048z" />
<glyph unicode="&#x2022;" d="M170 295q0 -61 22.5 -115.5t62.5 -94.5t94 -62.5t116 -22.5q61 0 114.5 22.5t93.5 62.5t63.5 94t23.5 116v225h-125l-2 -287q0 -35 -14.5 -66.5t-37 -54t-53 -36t-63.5 -13.5q-72 0 -120 49.5t-48 120.5v371h463v137q0 61 -23.5 114.5t-63.5 93.5t-93.5 63.5t-114.5 23.5 t-115.5 -23.5t-94.5 -63.5t-62.5 -93t-22.5 -115v-446zM197 1102v92l268 270l297 -270v-92l-297 194zM297 727v14q0 68 12.5 112t35 69.5t53 37t67.5 11.5t67.5 -11.5t53 -37t35 -69.5t12.5 -112v-14h-336z" />
<glyph unicode="&#x202f;" horiz-adv-x="297" />
<glyph unicode="&#x205f;" horiz-adv-x="371" />
<glyph unicode="&#xe000;" horiz-adv-x="875" d="M0 0v875h875v-875h-875z" />
<glyph unicode="&#xfb01;" d="M170 -154h123q0 -129 48 -177t118 -48q68 0 116 48t48 116v268q-70 -51 -164 -51q-59 0 -112.5 22.5t-92.5 61.5t-61.5 92t-22.5 113v452q0 59 22.5 112.5t61.5 92.5t92 61.5t113 22.5q59 0 112.5 -22.5t92 -61.5t61.5 -92t23 -113v-897q0 -59 -23 -112t-61.5 -92 t-92 -61.5t-112.5 -22.5t-112.5 22.5t-92.5 61.5t-61.5 92t-22.5 112zM293 229q0 -70 48 -118t118 -48q68 0 116 48.5t48 117.5v576q0 70 -48 118t-116 48q-70 0 -118 -48.5t-48 -117.5v-576z" />
<glyph unicode="&#xfb02;" d="M170 293v764h125v-826q0 -70 49 -119t119 -49q72 0 121 49.5t49 118.5v826h125v-764q0 -61 -23.5 -114.5t-63.5 -93.5t-93.5 -62.5t-114.5 -22.5t-114.5 22.5t-93.5 62.5t-62.5 93t-22.5 115zM633 231l125 62v-682h-125v620z" />
</font>
</defs>
</svg>
