<?xml version="1.0" standalone="no"?>
<!DOCTYPE svg PUBLIC "-//W3C//DTD SVG 1.1//EN" "http://www.w3.org/Graphics/SVG/1.1/DTD/svg11.dtd" >
<svg xmlns="http://www.w3.org/2000/svg">
<metadata></metadata>
<defs>
<font id="demihaut-afineemedium" horiz-adv-x="929" >
<font-face units-per-em="2048" ascent="1638" descent="-410" />
<missing-glyph horiz-adv-x="500" />
<glyph horiz-adv-x="2048" />
<glyph horiz-adv-x="2048" />
<glyph unicode="&#xd;" />
<glyph unicode=" " />
<glyph unicode="!" horiz-adv-x="464" d="M170 0v129h129v-129h-129zM170 283v755h125v-755h-125z" />
<glyph unicode="&#x22;" horiz-adv-x="464" d="M88 1038h129l-35 -374h-57zM258 1038h127l-33 -374h-59z" />
<glyph unicode="#" d="M170 295q0 -61 22.5 -115.5t62.5 -94.5t94 -62.5t116 -22.5q61 0 114.5 22.5t93.5 62.5t63.5 94t23.5 116v12h-125l-2 -74q0 -37 -14.5 -67.5t-38 -53t-53 -36t-62.5 -13.5q-72 0 -120 49.5t-48 120.5v195h463v313q0 61 -23.5 114.5t-63.5 93.5t-93.5 63.5t-114.5 23.5 t-115.5 -23.5t-94.5 -63.5t-62.5 -93t-22.5 -115v-446zM279 1360h176l170 -248h-101zM297 516v287q0 72 48 120t120 48t120 -48.5t48 -119.5v-287h-336z" />
<glyph unicode="$" d="M170 4v1032h604v-86h-477v-860h477v-86h-604z" />
<glyph unicode="&#x26;" d="M170 295v446q0 61 22.5 114.5t62.5 93.5t94 63.5t116 23.5q61 0 114.5 -23.5t93.5 -63.5t63.5 -93t23.5 -115v-313h-463v-195q0 -72 48 -121t120 -49q33 0 62.5 13.5t53 36t38 53.5t14.5 67l2 74h125v-12q0 -61 -23.5 -115.5t-63.5 -94.5t-93.5 -62.5t-114.5 -22.5 t-115.5 22.5t-94.5 62.5t-62.5 94t-22.5 116zM297 516h336v287q0 72 -48 120t-120 48t-120 -48.5t-48 -119.5v-287z" />
<glyph unicode="'" horiz-adv-x="464" d="M170 664l43 374h133l-113 -374h-63z" />
<glyph unicode="(" horiz-adv-x="464" d="M74 522q0 272 123 518h122q-59 -123 -90.5 -253t-31.5 -265q0 -137 31.5 -267t90.5 -253h-122q-59 123 -91 253t-32 267z" />
<glyph unicode=")" horiz-adv-x="464" d="M170 2q59 123 91 253t32 267q0 135 -32 265.5t-91 252.5h123q123 -246 123 -518q0 -137 -32 -267t-91 -253h-123z" />
<glyph unicode="*" horiz-adv-x="464" d="M168 1038h131l-35 -374h-63z" />
<glyph unicode="+" horiz-adv-x="464" d="M2 195v124h168v181h127v-181h166v-124h-166v-199h-127v199h-168z" />
<glyph unicode="," horiz-adv-x="464" d="M90 -233l90 231v131h131v-131l-188 -231h-33z" />
<glyph unicode="-" horiz-adv-x="464" d="M53 489v125h361v-125h-361z" />
<glyph unicode="." horiz-adv-x="464" d="M170 0v125h125v-125h-125z" />
<glyph unicode="/" horiz-adv-x="464" d="M2 -4l340 1040h125l-340 -1040h-125z" />
<glyph unicode="0" d="M170 295v446q0 121 86 207q86 88 209 88t209 -88q86 -86 86 -207v-446q0 -123 -86 -209t-209 -86t-209 86t-86 209zM297 233q0 -70 49 -118q49 -49 119 -49t119 49q51 49 51 118v570q0 68 -51 119q-49 49 -119 49t-119 -49q-49 -53 -49 -119v-570z" />
<glyph unicode="1" horiz-adv-x="464" d="M-49 492l272 544h72v-1036h-125v694l-113 -239z" />
<glyph unicode="2" d="M168 -2v125q12 96 86 147q88 70 211 70q72 0 119 39q25 20 37 53t12 68v305q0 70 -49 119t-119 49q-72 0 -121 -49t-49 -119v-285h-127v223q0 123 86 209t211 86q121 0 207 -86q88 -86 88 -209v-223q0 -123 -88 -192q-86 -68 -207 -68q-35 0 -65.5 -11t-55.5 -30 q-49 -41 -49 -96v-23h401v-102h-528z" />
<glyph unicode="3" d="M166 520v221q0 59 23.5 113.5t63.5 94.5t94 63.5t114 23.5q61 0 114.5 -23.5t93.5 -63.5t63.5 -94t23.5 -114l2 -223q0 -96 -113 -158q113 -61 113 -157q0 -43 -24.5 -80t-64.5 -64.5t-94.5 -43t-111.5 -15.5t-110.5 15.5t-94.5 42t-65.5 63.5t-24.5 80v55h127v-68 q0 -53 52 -83.5t116 -30.5q43 0 74.5 13t52 34.5t31 47.5t10.5 69q0 33 -48 66.5t-120 33.5v45q31 0 60.5 8t53 22.5t39 36t15.5 48.5v305q0 33 -13.5 63.5t-37 54t-54 37t-65.5 13.5q-70 0 -119 -49.5t-49 -118.5v-283h-127z" />
<glyph unicode="4" d="M170 520l246 516h182v-430h154v-86h-154v-520h-129v520h-299zM315 606h154v344z" />
<glyph unicode="5" d="M172 254h127q0 -104 50 -145t120 -41q33 0 63.5 9t53 31.5t37 57.5t14.5 129v6q0 31 -14.5 57.5t-37 46t-53 30.5t-63.5 11h-297v590h594v-86h-467v-436h170q61 0 114.5 -20.5t93.5 -55.5t63.5 -81t23.5 -97v-6q0 -51 -23.5 -97t-63.5 -81t-93.5 -55.5t-114.5 -20.5 t-115.5 19.5t-94.5 53t-63.5 81t-23.5 100.5z" />
<glyph unicode="6" d="M172 256v487q0 123 86 209t209 86t209 -86q88 -88 88 -209v-223h-127v285q0 68 -51 119q-49 49 -119 49t-119 -49t-49 -119v-356q76 49 168 49q125 0 209 -76q88 -76 82 -182q6 -86 -82 -164q-84 -78 -209 -78t-209 76q-86 74 -86 182zM299 256q0 -102 49 -145t119 -43 q31 0 61.5 9t60 39.5t40 77t8.5 87.5q0 27 -13.5 53t-36 47.5t-53 34t-67.5 12.5q-74 0 -121 -47t-47 -125z" />
<glyph unicode="7" d="M-57 952v86h594l-236 -759v-283h-106v309l194 647h-446z" />
<glyph unicode="8" d="M166 516v225q0 121 86 207q86 88 211 88q121 0 207 -88q88 -86 88 -207v-225q0 -94 -113 -158q113 -63 113 -157q0 -84 -86 -146q-88 -59 -209 -59q-119 0 -207 59q-86 61 -86 146q0 96 111 155q-115 61 -115 160zM293 516q0 -49 49 -100q47 -33 121 -33q70 0 117 33 q51 51 51 100v287q0 68 -51 119q-49 49 -117 49q-72 0 -121 -49q-49 -53 -49 -119v-287zM297 190q0 -25 14.5 -53t38 -45.5t53 -24t60.5 -6.5t60.5 7.5t54 25t39 46t14.5 50.5q0 45 -48 89.5t-120 44.5t-119 -43t-47 -91z" />
<glyph unicode="9" d="M166 205h127q0 -82 49 -115q51 -35 119 -35t119 35q51 33 51 115v143q-78 -37 -170 -37q-125 0 -209 60q-86 61 -86 145v225q0 123 86 209t209 86t209 -86q88 -86 88 -209v-536q0 -88 -88 -146q-84 -59 -209 -59t-209 59q-86 57 -86 146zM293 516q0 -82 49 -115 q47 -33 119 -32q72 0 119 32q51 33 51 115v287q0 70 -51 119q-49 49 -119 49t-119 -49t-49 -119v-287z" />
<glyph unicode=":" horiz-adv-x="464" d="M174 4v125h125v-125h-125zM176 434v127h127v-127h-127z" />
<glyph unicode=";" horiz-adv-x="464" d="M90 -221l86 221v125h127v-125l-182 -221h-31zM176 434v125h127v-125h-127z" />
<glyph unicode="&#x3c;" horiz-adv-x="464" d="M6 518l338 516h125l-319 -516l319 -522h-125z" />
<glyph unicode="=" horiz-adv-x="464" d="M53 -2v127h361v-127h-361zM53 489v125h361v-125h-361z" />
<glyph unicode="&#x3e;" horiz-adv-x="464" d="M2 -2l356 524l-356 520h131l363 -520l-363 -524h-131z" />
<glyph unicode="?" d="M170 518v223q0 123 86 209t209 86t209 -86q88 -88 88 -209v-223q2 -12 1 -25.5t-1 -27.5q0 -172 -121 -172q-125 0 -125 -49q0 -16 4 -25h-135q-2 10 -2 33q0 131 176 131q76 0 76 94v20.5t-2 20.5v285q0 70 -49 119t-119 49q-72 0 -121 -49t-49 -119v-285h-125zM389 -2 v104h137v-104h-137z" />
<glyph unicode="@" d="M170 295q0 -61 22.5 -115.5t62.5 -94.5t94 -62.5t116 -22.5q61 0 114.5 22.5t93.5 62.5t63.5 94t23.5 116v12h-125l-2 -74q0 -37 -14.5 -67.5t-38 -53t-53 -36t-62.5 -13.5q-72 0 -120 49.5t-48 120.5v195h463v313q0 61 -23.5 114.5t-63.5 93.5t-93.5 63.5t-114.5 23.5 t-115.5 -23.5t-94.5 -63.5t-62.5 -93t-22.5 -115v-446zM297 516v287q0 72 48 120t120 48t120 -48.5t48 -119.5v-287h-336zM362 1118l170 248h177l-246 -248h-101z" />
<glyph unicode="A" d="M168 0l2 741q0 61 22.5 115.5t62.5 94.5t93 63.5t115 23.5q61 0 114.5 -23.5t94.5 -63.5t64.5 -94t23.5 -116v-741h-125v430h-344v-430h-123zM291 756q0 -4 1 -9.5t1 -53.5v-81.5v-95.5h346l-2 287q0 72 -51 121t-123 49t-119 -50t-53 -120v-34v-13z" />
<glyph unicode="B" d="M170 0v694q0 133 70 238q98 104 225 104t221 -104q74 -104 74 -238v-182q0 -82 -49 -139q49 -59 49 -140v-30q0 -82 -49 -140q-49 -63 -129 -63h-412zM297 86h285q14 0 32 18q18 20 19 58v92q0 35 -19 57q-18 18 -32 19h-285v-244zM297 416h285q14 0 32 18q18 20 19 58 v264q0 92 -53 155q-47 59 -115 60q-68 0 -115 -60q-53 -63 -53 -155v-340z" />
<glyph unicode="C" d="M170 297v444q0 121 86 207q86 88 207 88q123 0 209 -88q88 -88 88 -207v-223h-127v285q0 70 -49 119t-121 49q-68 0 -117 -49t-49 -119v-506q0 -133 49 -182t117 -49q72 0 121 49t49 182h127q0 -123 -88 -211q-86 -86 -209 -86q-121 0 -207 86t-86 211z" />
<glyph unicode="D" horiz-adv-x="925" d="M170 0v694q0 137 82 238q82 104 209 104t213 -104q82 -104 82 -238v-491q0 -41 -13.5 -75t-35.5 -65q-53 -63 -132 -63h-405zM297 86h278q16 0 33 18q20 20 21 58v594q0 92 -54 155q-47 59 -114 60q-61 0 -113 -60q-51 -59 -51 -155v-670z" />
<glyph unicode="E" d="M170 4v1032h590v-86h-463v-430h246v-86h-246v-344h463v-86h-590z" />
<glyph unicode="F" d="M170 0v1036h590v-86h-463v-430h246v-86h-246v-434h-127z" />
<glyph unicode="G" d="M170 295v448q0 123 86 209q88 86 207 86q123 0 209 -86q88 -88 88 -209v-225h-127v287q0 70 -49 119t-121 49q-68 0 -117 -49t-49 -119v-510q0 -131 51 -180t121 -49q63 0 113 43q49 43 55 208h-174v86h301l-4 -108q-10 -125 -90 -209q-86 -86 -207 -86q-119 0 -207 86 q-86 86 -86 209z" />
<glyph unicode="H" d="M170 0v1036h127v-516h338v516h125v-1036h-125v434h-338v-434h-127z" />
<glyph unicode="I" horiz-adv-x="464" d="M170 0v1036h125v-1036h-125z" />
<glyph unicode="J" horiz-adv-x="464" d="M-125 256v25h127v-25q0 -133 14 -160q18 -33 72 -33q82 0 82 193v694h-170v86h465v-86h-170v-694q0 -131 -41 -190q-49 -68 -166 -68q-213 0 -213 258z" />
<glyph unicode="K" d="M170 0v1036h127v-706h168q70 0 119 49q51 49 51 119v538h125v-518q0 -143 -113 -231q113 -88 113 -234v-53h-125v74q0 72 -51 121q-49 49 -119 49h-168v-244h-127z" />
<glyph unicode="L" horiz-adv-x="464" d="M170 0v1036h125v-950h170v-86h-295z" />
<glyph unicode="M" horiz-adv-x="1394" d="M170 0v1038h96l430 -405l430 405h99v-1038h-127v868l-338 -309v-559h-125v559l-338 309v-868h-127z" />
<glyph unicode="N" d="M170 0v694q0 133 82 238q86 104 213 104t213 -104q82 -100 82 -238v-694h-127v756q0 92 -53 155q-47 59 -115 60q-31 0 -60.5 -14.5t-54.5 -45.5q-53 -63 -53 -155v-756h-127z" />
<glyph unicode="O" d="M170 295v446q0 121 86 207q86 88 209 88t209 -88q86 -86 86 -207v-446q0 -123 -86 -209t-209 -86t-209 86t-86 209zM297 233q0 -70 49 -118q49 -49 119 -49t119 49q51 49 51 118v570q0 68 -51 119q-49 49 -119 49t-119 -49q-49 -53 -49 -119v-570z" />
<glyph unicode="P" d="M170 0v694q0 137 82 238q86 104 213 104t213 -104q82 -104 82 -238v-176q0 -41 -13.5 -74.5t-35.5 -64.5q-53 -63 -131 -64h-283v-315h-127zM297 401h283q16 0 32 19q20 20 21 57v279q0 92 -53 155q-47 59 -115 60q-66 0 -117 -60q-51 -59 -51 -155v-355z" />
<glyph unicode="Q" d="M170 295v448q0 121 86 207q86 88 209 88t209 -88q86 -86 86 -207v-448q0 -90 -45 -160l45 -47l-90 -88l-45 45q-76 -47 -160 -47q-123 0 -209 86t-86 211zM297 233q0 -72 49 -120q49 -49 119 -50q35 0 65 13l-32 35l90 88l33 -33q14 35 14 67v572q0 70 -51 119 q-49 49 -119 49t-119 -49t-49 -119v-572z" />
<glyph unicode="R" d="M170 0v696q0 137 82 238q86 104 213 104t213 -104q82 -104 82 -238v-184q0 -100 -66 -160q-51 -45 -112 -45h-15l193 -307h-127l-193 309h-143v-309h-127zM297 395h283q16 0 32 19q20 20 21 57v287q0 92 -53 155q-47 59 -115 60q-66 0 -117 -60q-51 -59 -51 -155v-363z " />
<glyph unicode="S" d="M170 516v227q0 59 22.5 112.5t62.5 94.5t94 64.5t116 23.5q61 0 115.5 -23.5t94.5 -64.5t62.5 -94t22.5 -113v-223h-125v285q0 33 -13.5 63.5t-37 53t-54 37t-65.5 14.5q-72 0 -120 -50.5t-48 -117.5v-289q0 -18 15.5 -39.5t39 -40t53 -33t60.5 -20.5q59 -12 112.5 -29.5 t94.5 -42t64.5 -57.5t23.5 -74q0 -35 -24.5 -67.5t-65.5 -57t-94.5 -40t-110.5 -15.5q-55 0 -105.5 13.5t-89.5 37t-61.5 54t-22.5 67.5h123q0 -66 48.5 -91.5t107.5 -25.5q31 0 61.5 8.5t55 22.5t39 46t14.5 48q0 23 -14.5 36t-38 22.5t-54 16.5t-63.5 15q-57 14 -110.5 37 t-94.5 53.5t-65.5 69.5t-24.5 86z" />
<glyph unicode="T" horiz-adv-x="464" d="M0 952v86h465v-86h-170v-952h-125v952h-170z" />
<glyph unicode="U" d="M170 295v743h127v-805q0 -70 49 -118q49 -49 119 -49t119 49q51 49 51 118v805h125v-743q0 -123 -86 -209t-209 -86t-209 86t-86 209z" />
<glyph unicode="V" d="M170 489v549h127v-518l168 -379l168 379v518h127v-549l-256 -489h-78z" />
<glyph unicode="W" horiz-adv-x="1394" d="M170 485v553h127v-522l168 -373l170 373v522h127v-522l168 -373l168 373v522h127v-553l-256 -485h-78l-195 358l-192 -358h-78z" />
<glyph unicode="X" d="M170 0v57l205 207l-205 199v573h127v-520l168 -211l170 211v520h125v-573l-205 -199l205 -207v-57h-125v4l-170 211l-168 -211v-4h-127z" />
<glyph unicode="Y" d="M170 465v571h127v-518l170 -209l166 209v518h127v-571l-232 -232v-233h-125l-2 236l-57 57q-29 29 -73 72t-101 100z" />
<glyph unicode="Z" d="M170 952v86h590l-432 -952h432v-86h-586l430 952h-434z" />
<glyph unicode="^" d="M197 1122v92l270 271l297 -271v-92l-297 195z" />
<glyph unicode="a" d="M170 299v285q0 123 86 209t207 86q123 0 209 -86q88 -86 88 -209v-582h-127v55q-78 -53 -170 -53q-121 0 -207 86t-86 209zM297 238q0 -70 49 -119t117 -49q70 0 119 49q51 49 51 119v407q0 70 -51 119q-49 49 -119 49q-68 0 -117 -49t-49 -119v-407z" />
<glyph unicode="b" d="M170 297v1092h125v-566q72 53 172 54q121 0 207 -86t86 -207v-287q0 -121 -86 -207t-207 -86q-125 0 -211 86t-86 207zM295 236q0 -70 49 -119t123 -49q70 0 119 49t49 119v409q0 70 -49 119t-119 49q-74 0 -123 -49t-49 -119v-409z" />
<glyph unicode="c" d="M170 299v283q0 123 86 209q45 43 95 65.5t112 22.5q119 0 211 -88q86 -86 86 -209v-146h-127v207q0 70 -49 119q-55 51 -121 51t-117 -51q-49 -49 -49 -119v-405q0 -72 49 -121q51 -51 117 -51t121 51q49 49 49 121v71h127v-10q0 -125 -86 -213q-90 -86 -211 -86 q-119 0 -207 86q-86 88 -86 213z" />
<glyph unicode="d" d="M170 297v289q0 121 86 207t211 86q92 0 168 -54v561h125v-1089q0 -121 -86 -207t-207 -86q-125 0 -211 86t-86 207zM295 236q0 -70 49 -119t123 -49q70 0 119 49t49 119v411q0 70 -49 119t-119 49q-74 0 -123 -49t-49 -119v-411z" />
<glyph unicode="e" d="M170 299v281q0 125 88 211q86 88 205 88q121 0 209 -88q88 -86 88 -211v-205h-461v-76q0 -131 49 -182q49 -49 115 -49t119 49q49 51 49 182q62 3 94 3t35 -3q0 -123 -88 -211t-209 -88q-119 0 -205 88q-88 88 -88 211zM299 436h332v205q0 72 -49 121q-53 49 -119 49 t-115 -49t-49 -121v-205z" />
<glyph unicode="f" horiz-adv-x="464" d="M135 795v82h35v141q0 119 86 203q41 43 96.5 63.5t114.5 20.5v-82q-72 0 -123 -47q-49 -49 -49 -117v-182h98v-82h-98v-795h-125v795h-35z" />
<glyph unicode="g" d="M170 -154h123q0 -129 49 -178q25 -23 59.5 -35t69.5 -12q66 0 117 47q49 49 49 178l-2 205q-74 -51 -164 -51q-59 0 -116.5 21.5t-100.5 64.5q-84 84 -84 205v297q0 117 84 205q43 43 100.5 63.5t116.5 20.5q121 0 203 -84q86 -86 86 -205v-742q0 -119 -86 -204 q-84 -84 -203 -84q-59 0 -116.5 21.5t-100.5 62.5q-84 88 -84 204zM293 229q0 -70 49 -118q25 -23 59.5 -35.5t69.5 -12.5q66 0 117 48q49 49 49 118v420q0 68 -49 117t-117 49q-35 0 -69.5 -12t-59.5 -37q-49 -49 -49 -117v-420z" />
<glyph unicode="h" d="M170 0v1384h125v-559q72 51 172 52q121 0 207 -86q86 -84 86 -207v-584h-125v645q0 70 -49 119t-119 49q-74 0 -123 -49t-49 -119v-645h-125z" />
<glyph unicode="i" horiz-adv-x="464" d="M170 0v879h125v-879h-125zM170 1112v129h125v-129h-125z" />
<glyph unicode="j" horiz-adv-x="464" d="M2 -383q37 0 64.5 11.5t54.5 33.5q49 43 49 107v1110h125v-1069q0 -109 -90 -187q-45 -41 -92 -59.5t-111 -18.5v72zM170 1114v125h121v-125h-121z" />
<glyph unicode="k" d="M170 0v1065h127v-817h168q72 0 121 50t49 120v461h125v-441q0 -86 -37 -138t-113 -95q20 -6 46 -29.5t48.5 -54.5t38 -63.5t17.5 -57.5h-125q0 29 -14.5 65.5t-38 56t-54 31t-63.5 11.5h-168v-164h-127z" />
<glyph unicode="l" horiz-adv-x="464" d="M170 0v1389h125v-1389h-125z" />
<glyph unicode="m" horiz-adv-x="1394" d="M170 0v584q0 121 86 207q88 88 209 88q141 0 231 -115q90 115 232 115q123 0 211 -88q86 -86 86 -207v-584h-127v645q0 70 -49 119t-121 49q-70 0 -119 -49t-49 -119v-645h-127v645q0 70 -49 119t-119 49t-119 -49t-49 -119v-645h-127z" />
<glyph unicode="n" d="M170 0v582q0 121 86 211q88 86 207 86q121 0 211 -86q86 -90 86 -211v-582h-127v643q0 70 -49 119q-51 51 -121 51q-68 0 -117 -51q-49 -49 -49 -119v-643h-127z" />
<glyph unicode="o" d="M170 291v293q0 121 86 207t211 86q121 0 207 -86t86 -207v-293q0 -121 -86 -207t-207 -86q-125 0 -211 86t-86 207zM297 229q0 -68 47 -118q49 -49 123 -50q70 0 119 50q49 49 49 118v416q0 68 -49 117q-49 51 -119 51q-74 0 -123 -51q-47 -51 -47 -117v-416z" />
<glyph unicode="p" d="M170 -393v973q0 125 88 211q43 45 92 66.5t111 21.5q125 0 213 -88q86 -86 86 -211v-279q0 -123 -86 -211q-88 -88 -213 -88q-90 0 -162 51v-446h-129zM299 240q0 -70 49 -121q25 -25 51.5 -37t61.5 -12q72 0 121 49q49 51 49 121l2 401q0 70 -51 121q-49 49 -121 49 q-35 0 -61.5 -12.5t-51.5 -36.5q-49 -49 -49 -121v-401z" />
<glyph unicode="q" d="M170 301v279q0 125 88 213q43 43 92 64.5t111 21.5q123 0 213 -86q86 -90 86 -213v-973h-129v448q-76 -53 -170 -53q-61 0 -110.5 22.5t-92.5 65.5q-88 88 -88 211zM299 240q0 -70 49 -119q25 -27 51.5 -39t61.5 -12q72 0 121 51q51 51 51 119v401q0 70 -51 121 q-49 51 -121 51q-35 0 -61.5 -12.5t-51.5 -38.5q-49 -49 -49 -121v-401z" />
<glyph unicode="r" d="M170 0v582q0 123 86 209q86 88 207 88q123 0 211 -88q86 -86 86 -209v-144h-127v205q0 68 -51 119q-49 51 -119 51q-68 0 -117 -51q-49 -49 -49 -119v-643h-127z" />
<glyph unicode="s" d="M170 436v146q0 61 22.5 114.5t62.5 94t93 64.5t115 24q61 0 114.5 -24t94.5 -63.5t64.5 -94t23.5 -115.5v-144h-127v205q0 37 -13.5 67.5t-37 53t-54 36t-65.5 13.5q-70 0 -118 -50t-48 -120v-207q0 -4 3.5 -18.5t11 -29.5t16 -28.5t100.5 -13.5h113q41 0 81 -13.5 t70.5 -35t49 -51t18.5 -60.5q0 -47 -22.5 -82.5t-62.5 -59.5t-94.5 -35t-117.5 -11q-55 0 -104.5 12.5t-87.5 35t-60.5 56t-22.5 76.5h119q0 -43 14.5 -67.5t36 -38t49 -16.5t56.5 -3q43 0 74.5 2t53 14.5t32 39t10.5 77.5q0 18 -31 37t-61 19h-113q-119 0 -150.5 17t-55 46 t-38 62.5t-14.5 68.5z" />
<glyph unicode="t" horiz-adv-x="464" d="M2 920v81h168v373h125v-373h168v-81h-168v-924h-125v924h-168z" />
<glyph unicode="u" d="M170 295v582h127v-644q0 -72 49 -120q47 -47 119 -47q70 0 119 47q49 49 49 120v644h127v-582q0 -123 -88 -209q-86 -86 -207 -86q-123 0 -209 86t-86 209z" />
<glyph unicode="v" d="M170 406v473h127v-443l168 -307l170 307v443h125v-473l-248 -406h-92z" />
<glyph unicode="w" horiz-adv-x="1394" d="M170 295v584h127v-646q0 -70 49 -118q49 -49 119 -49t119 49t49 118v646h127v-646q0 -70 49 -118q49 -49 119 -49q74 0 123 49t49 118v646h125v-584q0 -123 -86 -209t-211 -86q-140 0 -232 113q-88 -113 -231 -113q-123 0 -209 86q-86 88 -86 209z" />
<glyph unicode="x" d="M170 0v199l154 75l-154 78v527h127v-449l166 -125l170 125v449h127v-527l-156 -78l156 -75v-199h-127v119l-170 127l-166 -127v-119h-127z" />
<glyph unicode="y" d="M170 295v584h127v-646q0 -70 47 -120q49 -49 121 -50q70 0 119 50q51 49 51 120v646h125v-1268h-125v440q-72 -51 -170 -51q-123 0 -209 86t-86 209z" />
<glyph unicode="z" d="M170 0l410 791h-408v86h592l-410 -791h406v-86h-590z" />
<glyph unicode="&#xa0;" />
<glyph unicode="&#xa8;" d="M240 1159v131h131v-131h-131zM569 1159v131h131v-131h-131z" />
<glyph unicode="&#xad;" horiz-adv-x="464" d="M53 489v125h361v-125h-361z" />
<glyph unicode="&#xba;" d="M170 295v582h127v-644q0 -72 48 -121t118 -49q72 0 121 49.5t49 120.5v644h125l2 -582q0 -10 -1 -18.5t-1 -18.5v-258h-125v51q-76 -53 -170 -53q-61 0 -114.5 23.5t-93.5 63.5t-62.5 94t-22.5 116z" />
<glyph unicode="&#xc0;" d="M168 0l2 741q0 61 22.5 115.5t62.5 94.5t93 63.5t115 23.5q61 0 114.5 -23.5t94.5 -63.5t64.5 -94t23.5 -116v-741h-125v430h-344v-430h-123zM279 1360h176l170 -248h-101zM291 756q0 -4 1 -9.5t1 -53.5v-81.5v-95.5h346l-2 287q0 72 -51 121t-123 49t-119 -50t-53 -120 v-34v-13z" />
<glyph unicode="&#xc1;" d="M168 0l2 741q0 61 22.5 115.5t62.5 94.5t93 63.5t115 23.5q61 0 114.5 -23.5t94.5 -63.5t64.5 -94t23.5 -116v-741h-125v430h-344v-430h-123zM291 756q0 -4 1 -9.5t1 -53.5v-81.5v-95.5h346l-2 287q0 72 -51 121t-123 49t-119 -50t-53 -120v-34v-13zM362 1118l170 248 h177l-246 -248h-101z" />
<glyph unicode="&#xc2;" d="M168 0l2 741q0 61 22.5 115.5t62.5 94.5t93 63.5t115 23.5q61 0 114.5 -23.5t94.5 -63.5t64.5 -94t23.5 -116v-741h-125v430h-344v-430h-123zM197 1102v92l268 270l297 -270v-92l-297 194zM291 756q0 -4 1 -9.5t1 -53.5v-81.5v-95.5h346l-2 287q0 72 -51 121t-123 49 t-119 -50t-53 -120v-34v-13z" />
<glyph unicode="&#xc4;" d="M168 0l2 741q0 61 22.5 115.5t62.5 94.5t93 63.5t115 23.5q61 0 114.5 -23.5t94.5 -63.5t64.5 -94t23.5 -116v-741h-125v430h-344v-430h-123zM240 1159v131h131v-131h-131zM291 756q0 -4 1 -9.5t1 -53.5v-81.5v-95.5h346l-2 287q0 72 -51 121t-123 49t-119 -50t-53 -120 v-34v-13zM569 1159v131h131v-131h-131z" />
<glyph unicode="&#xc7;" />
<glyph unicode="&#xc8;" d="M170 4v1032h590v-86h-463v-430h246v-86h-246v-344h463v-86h-590zM279 1360h176l170 -248h-101z" />
<glyph unicode="&#xc9;" d="M170 4v1032h590v-86h-463v-430h246v-86h-246v-344h463v-86h-590zM362 1118l170 248h177l-246 -248h-101z" />
<glyph unicode="&#xca;" d="M170 4v1032h590v-86h-463v-430h246v-86h-246v-344h463v-86h-590zM362 1118l170 248h177l-246 -248h-101z" />
<glyph unicode="&#xcb;" d="M170 4v1032h590v-86h-463v-430h246v-86h-246v-344h463v-86h-590zM240 1159v131h131v-131h-131zM569 1159v131h131v-131h-131z" />
<glyph unicode="&#xcd;" horiz-adv-x="464" d="M-129 256v25h127v-25q0 -133 14 -160q18 -33 76 -33q82 0 82 193v780h125v-780q0 -66 -12.5 -114t-32.5 -76q-49 -68 -162 -68q-217 0 -217 258z" />
<glyph unicode="&#xce;" horiz-adv-x="464" d="M-29 1102v92l269 270l297 -270v-92l-297 194zM170 0v1036h125v-1036h-125z" />
<glyph unicode="&#xcf;" horiz-adv-x="462" d="M-63 0v66h63q68 0 117 59q53 63 53 217v694h123v-694q0 -133 -82 -238q-86 -104 -211 -104h-63z" />
<glyph unicode="&#xd3;" d="M170 295v446q0 121 86 207q86 88 209 88t209 -88q86 -86 86 -207v-446q0 -123 -86 -209t-209 -86t-209 86t-86 209zM297 233q0 -70 49 -118q49 -49 119 -49t119 49q51 49 51 118v570q0 68 -51 119q-49 49 -119 49t-119 -49q-49 -53 -49 -119v-570zM362 1118l170 248h177 l-246 -248h-101z" />
<glyph unicode="&#xd4;" d="M170 295v446q0 121 86 207q86 88 209 88t209 -88q86 -86 86 -207v-446q0 -123 -86 -209t-209 -86t-209 86t-86 209zM197 1102v92l268 270l297 -270v-92l-297 194zM297 233q0 -70 49 -118q49 -49 119 -49t119 49q51 49 51 118v570q0 68 -51 119q-49 49 -119 49t-119 -49 q-49 -53 -49 -119v-570z" />
<glyph unicode="&#xd5;" horiz-adv-x="925" />
<glyph unicode="&#xd6;" d="M170 295v446q0 121 86 207q86 88 209 88t209 -88q86 -86 86 -207v-446q0 -123 -86 -209t-209 -86t-209 86t-86 209zM240 1159v131h131v-131h-131zM297 233q0 -70 49 -118q49 -49 119 -49t119 49q51 49 51 118v570q0 68 -51 119q-49 49 -119 49t-119 -49q-49 -53 -49 -119 v-570zM569 1159v131h131v-131h-131z" />
<glyph unicode="&#xd9;" d="M170 295q0 -123 86 -209t209 -86t209 86t86 209v743h-125v-805q0 -70 -51 -118q-49 -49 -119 -49t-119 49t-49 118v805h-127v-743zM260 1376h176l170 -248h-100z" />
<glyph unicode="&#xda;" horiz-adv-x="464" d="M-63 1081h129l172 -399l174 399h129l-240 -544l2 -539h-129v539z" />
<glyph unicode="&#xdb;" d="M170 295v743h127v-805q0 -70 49 -118q49 -49 119 -49t119 49q51 49 51 118v805h125v-743q0 -123 -86 -209t-209 -86t-209 86t-86 209zM197 1102v92l268 270l297 -270v-92l-297 194z" />
<glyph unicode="&#xdc;" d="M170 295v743h127v-805q0 -70 49 -118q49 -49 119 -49t119 49q51 49 51 118v805h125v-743q0 -123 -86 -209t-209 -86t-209 86t-86 209zM240 1159v131h131v-131h-131zM569 1159v131h131v-131h-131z" />
<glyph unicode="&#xe0;" d="M170 299v285q0 123 86 209t207 86q123 0 209 -86q88 -86 88 -209v-582h-127v55q-78 -53 -170 -53q-121 0 -207 86t-86 209zM289 1217h155l170 -248h-79zM297 238q0 -70 49 -119t117 -49q70 0 119 49q51 49 51 119v407q0 70 -51 119q-49 49 -119 49q-68 0 -117 -49 t-49 -119v-407z" />
<glyph unicode="&#xe2;" d="M170 299v285q0 123 86 209t207 86q123 0 209 -86q88 -86 88 -209v-582h-127v55q-78 -53 -170 -53q-121 0 -207 86t-86 209zM197 926v92l268 270l297 -270v-92l-297 194zM297 238q0 -70 49 -119t117 -49q70 0 119 49q51 49 51 119v407q0 70 -51 119q-49 49 -119 49 q-68 0 -117 -49t-49 -119v-407z" />
<glyph unicode="&#xe4;" d="M170 299v285q0 123 86 209t207 86q123 0 209 -86q88 -86 88 -209v-582h-127v55q-78 -53 -170 -53q-121 0 -207 86t-86 209zM240 993v131h131v-131h-131zM297 238q0 -70 49 -119t117 -49q70 0 119 49q51 49 51 119v407q0 70 -51 119q-49 49 -119 49q-68 0 -117 -49 t-49 -119v-407zM569 993v131h131v-131h-131z" />
<glyph unicode="&#xe7;" d="M170 299v283q0 123 86 209q92 88 211 88q61 0 111.5 -22.5t95.5 -65.5q86 -86 86 -209v-144h-127v205q0 70 -49 119q-27 25 -54.5 38t-62.5 13q-70 0 -121 -51q-49 -49 -49 -119v-405q0 -72 49 -121q51 -51 121 -51q35 0 62.5 13t54.5 38q49 49 49 121v77h127v-16 q0 -125 -86 -213q-45 -43 -95.5 -64.5t-111.5 -21.5q-123 0 -211 86q-86 88 -86 213zM291 -197h78v-43q0 -115 110 -114q78 0 99 53q10 18 10 82v8q0 31 -23 51q-20 20 -51 21h-37q-41 0 -49 24q-4 8 -4 49v68q25 -2 84 0v-35q0 -33 35 -33h2q51 0 88 -36q37 -37 37 -88v-50 q0 -195 -191 -194q-90 0 -143 53q-45 45 -45 107v77z" />
<glyph unicode="&#xe8;" d="M170 299v281q0 125 88 211q86 88 205 88q121 0 209 -88q88 -86 88 -211v-205h-461v-76q0 -131 49 -182q49 -49 115 -49t119 49q49 51 49 182q123 6 129 0q0 -123 -88 -211t-209 -88q-119 0 -205 88q-88 88 -88 211zM289 1217h155l170 -248h-79zM299 436h332v205 q0 72 -49 121q-53 49 -119 49t-115 -49t-49 -121v-205z" />
<glyph unicode="&#xe9;" d="M170 299v281q0 125 88 211q86 88 205 88q121 0 209 -88q88 -86 88 -211v-205h-461v-76q0 -131 49 -182q49 -49 115 -49t119 49q49 51 49 182q123 6 129 0q0 -123 -88 -211t-209 -88q-119 0 -205 88q-88 88 -88 211zM299 436h332v205q0 72 -49 121q-53 49 -119 49 t-115 -49t-49 -121v-205zM362 969l170 248h177l-246 -248h-101z" />
<glyph unicode="&#xea;" d="M170 299v281q0 125 88 211q86 88 205 88q121 0 209 -88q88 -86 88 -211v-205h-461v-76q0 -131 49 -182q49 -49 115 -49t119 49q49 51 49 182q123 6 129 0q0 -123 -88 -211t-209 -88q-119 0 -205 88q-88 88 -88 211zM197 938v92l268 270l297 -270v-92l-297 195zM299 436 h332v205q0 72 -49 121q-53 49 -119 49t-115 -49t-49 -121v-205z" />
<glyph unicode="&#xeb;" d="M170 299v281q0 125 88 211q86 88 205 88q121 0 209 -88q88 -86 88 -211v-205h-461v-76q0 -131 49 -182q49 -49 115 -49t119 49q49 51 49 182q123 6 129 0q0 -123 -88 -211t-209 -88q-119 0 -205 88q-88 88 -88 211zM240 993v131h131v-131h-131zM299 436h332v205 q0 72 -49 121q-53 49 -119 49t-115 -49t-49 -121v-205zM569 993v131h131v-131h-131z" />
<glyph unicode="&#xee;" horiz-adv-x="464" d="M-29 938v92l269 270l297 -270v-92l-297 195zM170 0v879h125v-879h-125z" />
<glyph unicode="&#xef;" horiz-adv-x="464" d="M4 1159v131h131v-131h-131zM170 0v879h125v-879h-125zM334 1159v131h131v-131h-131z" />
<glyph unicode="&#xf2;" d="M170 291v293q0 121 86 207t211 86q121 0 207 -86t86 -207v-293q0 -121 -86 -207t-207 -86q-125 0 -211 86t-86 207zM289 1217h155l170 -248h-79zM297 229q0 -68 47 -118q49 -49 123 -50q70 0 119 50q49 49 49 118v416q0 68 -49 117q-49 51 -119 51q-74 0 -123 -51 q-47 -51 -47 -117v-416z" />
<glyph unicode="&#xf3;" d="M170 291v293q0 121 86 207t211 86q121 0 207 -86t86 -207v-293q0 -121 -86 -207t-207 -86q-125 0 -211 86t-86 207zM297 229q0 -68 47 -118q49 -49 123 -50q70 0 119 50q49 49 49 118v416q0 68 -49 117q-49 51 -119 51q-74 0 -123 -51q-47 -51 -47 -117v-416zM362 969 l170 248h177l-246 -248h-101z" />
<glyph unicode="&#xf4;" d="M170 291v293q0 121 86 207t211 86q121 0 207 -86t86 -207v-293q0 -121 -86 -207t-207 -86q-125 0 -211 86t-86 207zM197 938v92l268 270l297 -270v-92l-297 195zM297 229q0 -68 47 -118q49 -49 123 -50q70 0 119 50q49 49 49 118v416q0 68 -49 117q-49 51 -119 51 q-74 0 -123 -51q-47 -51 -47 -117v-416z" />
<glyph unicode="&#xf6;" d="M170 291v293q0 121 86 207t211 86q121 0 207 -86t86 -207v-293q0 -121 -86 -207t-207 -86q-125 0 -211 86t-86 207zM240 993v131h131v-131h-131zM297 229q0 -68 47 -118q49 -49 123 -50q70 0 119 50q49 49 49 118v416q0 68 -49 117q-49 51 -119 51q-74 0 -123 -51 q-47 -51 -47 -117v-416zM569 993v131h131v-131h-131z" />
<glyph unicode="&#xf8;" d="M168 0l2 741q0 61 22.5 115.5t62.5 94.5t93 63.5t115 23.5q61 0 114.5 -23.5t94.5 -63.5t64.5 -94t23.5 -116v-741h-125v430h-344v-430h-123zM260 1376h176l170 -248h-100zM291 756q0 -4 1 -9.5t1 -53.5v-81.5v-95.5h346l-2 287q0 72 -51 121t-123 49t-119 -50t-53 -120 v-34v-13z" />
<glyph unicode="&#xf9;" d="M170 295q0 -61 22.5 -115.5t62.5 -94.5t93 -63.5t115 -23.5q61 0 115.5 23.5t94.5 63.5t63.5 94t23.5 116l-2 582h-125v-644q0 -72 -49 -121t-121 -49q-70 0 -118 49.5t-48 120.5v644h-127v-582zM289 1217h155l170 -248h-79z" />
<glyph unicode="&#xfb;" d="M170 295q0 -61 22.5 -115.5t62.5 -94.5t93 -63.5t115 -23.5q61 0 115.5 23.5t94.5 63.5t63.5 94t23.5 116l-2 582h-125v-644q0 -72 -49 -121t-121 -49q-70 0 -118 49.5t-48 120.5v644h-127v-582zM197 938v92l268 270l297 -270v-92l-297 195z" />
<glyph unicode="&#xfc;" d="M170 295v582h127v-644q0 -72 49 -120q47 -47 119 -47q70 0 119 47q49 49 49 120v644h127v-582q0 -123 -88 -209q-86 -86 -207 -86q-123 0 -209 86t-86 209zM240 993v131h131v-131h-131zM569 993v131h131v-131h-131z" />
<glyph unicode="&#x2000;" horiz-adv-x="762" />
<glyph unicode="&#x2001;" horiz-adv-x="1524" />
<glyph unicode="&#x2002;" horiz-adv-x="762" />
<glyph unicode="&#x2003;" horiz-adv-x="1524" />
<glyph unicode="&#x2004;" horiz-adv-x="508" />
<glyph unicode="&#x2005;" horiz-adv-x="381" />
<glyph unicode="&#x2006;" horiz-adv-x="254" />
<glyph unicode="&#x2007;" horiz-adv-x="254" />
<glyph unicode="&#x2008;" horiz-adv-x="190" />
<glyph unicode="&#x2009;" horiz-adv-x="304" />
<glyph unicode="&#x200a;" horiz-adv-x="84" />
<glyph unicode="&#x2010;" horiz-adv-x="464" d="M53 489v125h361v-125h-361z" />
<glyph unicode="&#x2011;" horiz-adv-x="464" d="M53 489v125h361v-125h-361z" />
<glyph unicode="&#x2012;" horiz-adv-x="464" d="M53 489v125h361v-125h-361z" />
<glyph unicode="&#x2013;" horiz-adv-x="1127" d="M53 489v125h1024v-125h-1024z" />
<glyph unicode="&#x2014;" horiz-adv-x="2151" d="M53 489v125h2048v-125h-2048z" />
<glyph unicode="&#x201a;" d="M170 0v1524h295q123 0 209 -86t86 -209v-463q0 -143 -113 -231q113 -88 113 -234v-301h-125v301q0 72 -51 121q-49 49 -119 49h-168v-471h-127zM297 598h168q70 0 119 49q51 49 51 119v463q0 70 -51 121q-49 49 -119 49l-168 -2v-799z" />
<glyph unicode="&#x2022;" d="M170 295q0 -61 22.5 -115.5t62.5 -94.5t94 -62.5t116 -22.5q61 0 114.5 22.5t93.5 62.5t63.5 94t23.5 116v12h-125l-2 -74q0 -37 -14.5 -67.5t-38 -53t-53 -36t-62.5 -13.5q-72 0 -120 49.5t-48 120.5v195h463v313q0 61 -23.5 114.5t-63.5 93.5t-93.5 63.5t-114.5 23.5 t-115.5 -23.5t-94.5 -63.5t-62.5 -93t-22.5 -115v-446zM197 1102v92l268 270l297 -270v-92l-297 194zM297 516v287q0 72 48 120t120 48t120 -48.5t48 -119.5v-287h-336z" />
<glyph unicode="&#x202f;" horiz-adv-x="304" />
<glyph unicode="&#x203a;" horiz-adv-x="1394" d="M170 498v565h127v-535l168 -399l170 399v535h127v-535l168 -399l170 399v535h127v-565l-252 -498h-92l-185 371l-186 -371h-94z" />
<glyph unicode="&#x205f;" horiz-adv-x="381" />
<glyph unicode="&#xe000;" horiz-adv-x="880" d="M0 0v880h880v-880h-880z" />
<glyph unicode="&#xfb02;" d="M174 342v696h596v-86h-469v-610q0 -152 53 -217q49 -57 115 -57t117 57q57 63 57 217v90h-168v86h295v-176q0 -135 -88 -238q-86 -102 -213 -102t-213 104q-82 100 -82 236z" />
</font>
</defs>
</svg>
